<svg xmlns="http://www.w3.org/2000/svg" width="560" height="420" viewBox="0 0 560 420" role="img" aria-label="Leaderboard podium with bright progress rails"><rect width="560" height="420" rx="32" fill="#07131c"/><path d="M72 320C141 176 275 125 486 148" fill="none" stroke="#143247" stroke-width="24" stroke-linecap="round" opacity=".7"/><path d="M82 332C183 252 291 226 478 253" fill="none" stroke="#55d7e6" stroke-width="8" stroke-linecap="round" opacity=".35"/><path d="M276 252h62v88h-62zM188 284h62v56h-62zM364 304h62v36h-62z" fill="#f2b84b" opacity=".95"/><path d="M303 193 318 224 352 229 327 253 333 287 303 271 273 287 279 253 254 229 288 224Z" fill="#f6d778"/><circle cx="100" cy="102" r="12" fill="#55d7e6"/><circle cx="448" cy="96" r="16" fill="#8fe36d"/><circle cx="462" cy="330" r="10" fill="#f2b84b"/></svg>
